<svg width="177" height="29" viewBox="0 0 177 29" fill="none" xmlns="http://www.w3.org/2000/svg">
<path d="M57.2809 17.882C56.5112 21.6023 53.4002 23.8794 49.263 23.8794C44.4843 23.8794 40.9564 20.127 40.9564 14.8993C40.9564 9.73577 44.5163 5.88715 49.295 5.88715C52.0211 5.88715 54.3945 7.17002 55.8698 9.38298C57.4413 11.7884 57.5054 14.0655 57.5696 15.7653H45.2219C45.6388 20.1912 48.5574 20.4478 49.3592 20.4478C51.059 20.4478 52.1815 19.646 52.855 17.882H57.2809ZM52.8871 12.8467C52.5984 10.6659 51.2835 9.47919 49.263 9.47919C47.4028 9.47919 45.9596 10.73 45.4143 12.8467H52.8871Z" fill="white"/>
<path d="M76.0109 20.1912H77.5824V23.5267H71.8416V12.077C71.8416 10.4734 70.9115 9.51127 69.3079 9.51127C67.2553 9.51127 65.4593 11.5639 65.4593 13.873V20.1912V23.5267H59.6863V20.1912H61.2899V9.73577H59.6863V6.4003H65.4593V8.58119C66.3573 7.61903 67.9288 5.95129 70.687 5.95129C73.7338 5.95129 76.0109 8.13218 76.0109 11.0828V20.1912Z" fill="white"/>
<path d="M31.6555 5.88715C29.7633 5.88715 27.9673 6.68894 26.6203 8.13217V6.4003H20.8473V9.73577H22.7716V25.6434H20.8473V28.9789H26.6203V25.6434V21.5382C28.2559 23.3022 29.5709 23.9436 31.5272 23.9436C35.8249 23.9436 38.9358 20.2233 38.9358 15.0597C38.9358 9.63955 35.9211 5.88715 31.6555 5.88715ZM33.644 19.3252C32.8422 20.0629 31.7838 20.4478 30.6934 20.4478C28.2559 20.4478 26.524 18.1386 26.524 14.9314C26.524 11.628 28.1276 9.57541 30.6934 9.54334C33.9647 9.54334 35.1514 12.1091 35.1514 14.8031C35.1193 17.0802 34.7024 18.331 33.644 19.3252Z" fill="white"/>
<path d="M97.7556 3.93074V0.46698H91.7903V3.89867V8.16422C90.0904 6.33613 88.7434 5.69469 86.6908 5.69469C82.2649 5.69469 78.9936 9.57538 78.9936 14.8993C78.9936 20.4798 82.1046 24.3605 86.5305 24.3605C88.4869 24.3605 90.347 23.5266 91.7582 22.0513V23.8474H97.7235V20.4157H95.7672V3.93074H97.7556ZM89.8339 19.3252C89.0321 20.0629 87.9737 20.4477 86.8833 20.4477C84.4458 20.4477 82.7139 18.1386 82.7139 14.9314C82.7139 11.628 84.2854 9.57538 86.8833 9.54331C90.1546 9.54331 91.3413 12.1091 91.3413 14.8031C91.3413 17.0802 90.9243 18.331 89.8339 19.3252Z" fill="white"/>
<path d="M105.228 9.06224C106.351 6.88135 107.602 5.98334 109.494 5.98334C110.071 5.98334 110.584 6.04748 111.418 6.20784V10.1847C110.648 10.0244 110.039 9.96025 109.334 9.96025C107.089 9.96025 105.228 11.5638 105.228 13.5202V20.1591V23.4946H101.027V20.1912V9.73574H99.3913V6.40027H105.196V9.06224H105.228Z" fill="white"/>
<path d="M129.154 17.882C128.384 21.6023 125.273 23.8794 121.136 23.8794C116.357 23.8794 112.829 20.127 112.829 14.8993C112.829 9.73577 116.357 5.88715 121.168 5.88715C123.894 5.88715 126.3 7.17002 127.743 9.38298C129.314 11.7884 129.378 14.0655 129.443 15.7653H117.095C117.512 20.1912 120.43 20.4478 121.232 20.4478C122.932 20.4478 124.054 19.646 124.728 17.882H129.154ZM124.792 12.8467C124.503 10.6659 123.189 9.47919 121.168 9.47919C119.308 9.47919 117.865 10.73 117.319 12.8467H124.792Z" fill="white"/>
<path d="M146.826 20.1912H148.301V23.5266H143.009V21.5061C141.245 23.2701 139.93 23.8794 137.845 23.8794C134.414 23.8794 131.816 21.5703 131.816 18.5555C131.816 13.5523 137.461 13.0071 142.945 12.4939C142.913 9.86404 142.271 9.19053 139.77 9.19053C138.006 9.19053 136.787 10.1848 136.691 11.7883L132.522 11.6601C132.746 8.22837 135.504 6.04749 139.545 6.04749C144.26 6.04749 146.826 8.1963 146.826 12.077V20.1912ZM142.849 15.4125C138.808 15.7973 136.21 16.1501 136.21 18.5234C136.21 19.9346 137.332 20.8647 139.032 20.8647C141.213 20.8647 142.881 19.229 142.881 17.0802V15.4125H142.849Z" fill="white"/>
<path d="M156.287 8.42083C158.115 6.49652 159.237 5.95129 161.162 5.95129C163.086 5.95129 164.176 6.65687 165.267 8.61326C166.101 7.71525 167.704 5.95129 170.43 5.95129C173.189 5.95129 175.049 7.90768 175.049 10.8262V20.1912H176.652V23.5267H170.879V12.0129C170.879 10.5055 170.174 9.60748 169.051 9.60748C167.287 9.60748 165.652 11.8525 165.652 14.2579V20.1912V23.5267H161.45V12.1732C161.45 10.4414 160.873 9.60748 159.654 9.60748C157.762 9.60748 156.158 11.9167 156.223 14.6107V20.1591V23.4946H150.578V20.1912H152.021V9.73577H150.642V6.4003H156.287V8.42083Z" fill="white"/>
<path d="M10.3278 5.37396C5.06798 5.37396 0.770355 9.67159 0.770355 14.9314C0.770355 20.1912 5.06798 24.4888 10.3278 24.4888C15.6196 24.4888 19.8852 20.1912 19.8852 14.9314C19.8852 9.67159 15.5875 5.37396 10.3278 5.37396ZM15.78 15.1238C15.78 18.1386 13.3425 20.576 10.3278 20.576C7.31301 20.576 4.87555 18.1386 4.87555 15.1238C4.87555 12.109 7.31301 9.67159 10.3278 9.67159C13.3104 9.67159 15.78 12.109 15.78 15.1238Z" fill="white"/>
</svg>
